<!-- icon666.com - MILLIONS OF FREE VECTOR ICONS --><svg viewBox="0 0 128 128" xmlns="http://www.w3.org/2000/svg" xmlns:xlink="http://www.w3.org/1999/xlink"><linearGradient id="a" gradientUnits="userSpaceOnUse" x1="95.128" x2="22.89" y1="100.119" y2="27.881"><stop offset="0" stop-color="#ff6136"></stop><stop offset="1" stop-color="#ffb400"></stop></linearGradient><path d="m66.792 28.288a1.75 1.75 0 0 1 1.75-1.75h1.885a1.75 1.75 0 0 1 0 3.5h-1.885a1.75 1.75 0 0 1 -1.75-1.75zm23.525 57.441v-3.98a6.428 6.428 0 0 1 -2.97.728h-56.676a6.436 6.436 0 0 1 -2.971-.728v3.98a2.974 2.974 0 0 0 2.971 2.97h5.1a1.75 1.75 0 0 1 0 3.5h-5.1a6.478 6.478 0 0 1 -6.471-6.47v-43.458a6.478 6.478 0 0 1 6.471-6.47h56.676a6.477 6.477 0 0 1 6.47 6.47v43.458a6.477 6.477 0 0 1 -6.47 6.47h-38.893a1.75 1.75 0 1 1 0-3.5h38.893a2.974 2.974 0 0 0 2.97-2.97zm-62.617-43.458v3.98a6.436 6.436 0 0 1 2.971-.728h56.676a6.428 6.428 0 0 1 2.97.728v-3.98a2.974 2.974 0 0 0 -2.97-2.97h-56.676a2.974 2.974 0 0 0 -2.971 2.97zm62.617 33.736v-24.014a2.974 2.974 0 0 0 -2.97-2.97h-56.676a2.974 2.974 0 0 0 -2.971 2.97v24.014a2.974 2.974 0 0 0 2.971 2.97h56.676a2.974 2.974 0 0 0 2.97-2.97zm20.433-26.461v23.946a1.75 1.75 0 0 1 -1.75 1.75h-8.232v14.313a11.921 11.921 0 0 1 -11.908 11.907h-59.7a11.921 11.921 0 0 1 -11.91-11.907v-51.11a11.921 11.921 0 0 1 11.907-11.907h28.6a1.75 1.75 0 0 1 0 3.5h-28.6a8.417 8.417 0 0 0 -8.407 8.407v51.11a8.417 8.417 0 0 0 8.407 8.407h59.7a8.418 8.418 0 0 0 8.408-8.407v-51.11a8.418 8.418 0 0 0 -8.408-8.407h-7.738a1.75 1.75 0 0 1 0-3.5h7.741a11.921 11.921 0 0 1 11.908 11.907v9.355h8.232a1.75 1.75 0 0 1 1.75 1.746zm-9.982 1.75v3.644h6.482v-3.64zm6.482 7.144h-6.482v6.16h6.482zm0 13.3v-3.64h-6.482v3.644zm-64.888-11.24v8.218a4.931 4.931 0 0 1 -4.926 4.926h-1.578a4.931 4.931 0 0 1 -4.925-4.926v-8.218a4.932 4.932 0 0 1 4.925-4.926h1.578a4.932 4.932 0 0 1 4.926 4.926zm-3.5 0a1.427 1.427 0 0 0 -1.426-1.426h-1.578a1.427 1.427 0 0 0 -1.425 1.426v8.218a1.427 1.427 0 0 0 1.425 1.426h1.578a1.427 1.427 0 0 0 1.426-1.426zm18.407 0v8.218a4.93 4.93 0 0 1 -4.925 4.926h-1.578a4.931 4.931 0 0 1 -4.926-4.926v-8.218a4.932 4.932 0 0 1 4.926-4.926h1.578a4.931 4.931 0 0 1 4.925 4.926zm-3.5 0a1.427 1.427 0 0 0 -1.425-1.426h-1.578a1.427 1.427 0 0 0 -1.426 1.426v8.218a1.427 1.427 0 0 0 1.426 1.426h1.578a1.427 1.427 0 0 0 1.425-1.426zm18.408 0v8.218a4.931 4.931 0 0 1 -4.926 4.926h-1.577a4.931 4.931 0 0 1 -4.926-4.926v-8.218a4.932 4.932 0 0 1 4.926-4.926h1.577a4.932 4.932 0 0 1 4.926 4.926zm-3.5 0a1.428 1.428 0 0 0 -1.426-1.426h-1.577a1.428 1.428 0 0 0 -1.426 1.426v8.218a1.428 1.428 0 0 0 1.426 1.426h1.577a1.428 1.428 0 0 0 1.426-1.426zm18.408 0v8.218a4.931 4.931 0 0 1 -4.926 4.926h-1.578a4.931 4.931 0 0 1 -4.926-4.926v-8.218a4.932 4.932 0 0 1 4.926-4.926h1.578a4.932 4.932 0 0 1 4.926 4.926zm-3.5 0a1.428 1.428 0 0 0 -1.426-1.426h-1.578a1.428 1.428 0 0 0 -1.426 1.426v8.218a1.428 1.428 0 0 0 1.426 1.426h1.578a1.428 1.428 0 0 0 1.426-1.426z" fill="url(#a)"></path></svg>